<svg width="30" height="29" viewBox="0 0 30 29" fill="none" xmlns="http://www.w3.org/2000/svg">
<path d="M29.4652 20.2V23.0723C29.4644 24.0959 29.1429 25.0897 28.5519 25.8955C27.9609 26.7012 27.1345 27.2724 26.2042 27.5181L24.4307 27.9917C24.0095 28.1029 23.5702 28.1104 23.1459 28.0134C22.7216 27.9165 22.3235 27.7177 21.9818 27.4321C21.64 27.1466 21.3636 26.7817 21.1734 26.3652C20.9831 25.9486 20.8841 25.4913 20.8838 25.0278V18.2445C20.8838 17.4341 21.1851 16.6569 21.7216 16.0839C22.258 15.5109 22.9856 15.1889 23.7442 15.1889V12.8056C23.7442 10.3744 22.8401 8.04287 21.2308 6.32378C19.6215 4.6047 17.4388 3.63893 15.1628 3.63893C12.8869 3.63893 10.7042 4.6047 9.09487 6.32378C7.48554 8.04287 6.58144 10.3744 6.58144 12.8056V15.1889C7.34008 15.1889 8.06765 15.5109 8.60409 16.0839C9.14053 16.6569 9.4419 17.4341 9.4419 18.2445V25.0278C9.44254 25.4932 9.34366 25.9526 9.1528 26.3709C8.96195 26.7893 8.68415 27.1555 8.34062 27.4417C7.8349 27.8538 7.21746 28.079 6.58144 28.0834C6.34529 28.0821 6.11009 28.0513 5.88062 27.9917L4.10713 27.5181C3.17955 27.2695 2.3563 26.697 1.76809 25.8916C1.17989 25.0861 0.860451 24.0938 0.860506 23.0723V20.2C0.857074 19.2492 1.13056 18.3208 1.64307 17.5434C2.15559 16.766 2.88175 16.1781 3.72097 15.8612V12.8056C3.72097 9.56406 4.92645 6.45529 7.07221 4.16318C9.21798 1.87107 12.1283 0.583374 15.1628 0.583374C18.1974 0.583374 21.1077 1.87107 23.2534 4.16318C25.3992 6.45529 26.6047 9.56406 26.6047 12.8056V15.8612C27.4439 16.1781 28.1701 16.766 28.6826 17.5434C29.1951 18.3208 29.4686 19.2492 29.4652 20.2Z" fill="#00D1FF"/>
</svg>
