<svg width="22" height="22" viewBox="0 0 22 22" fill="none" xmlns="http://www.w3.org/2000/svg">
<path fill-rule="evenodd" clip-rule="evenodd" d="M11.001 0.866699C8.24891 0.866699 7.90353 0.878733 6.82263 0.927922C5.74384 0.977323 5.00748 1.14811 4.36316 1.3987C3.69667 1.65753 3.13131 2.00376 2.56806 2.56722C2.00439 3.13047 1.65816 3.69583 1.39849 4.3621C1.14727 5.00663 0.976267 5.74321 0.927711 6.82157C0.879366 7.90247 0.866699 8.24806 0.866699 11.0001C0.866699 13.7522 0.878944 14.0965 0.927922 15.1774C0.977534 16.2562 1.14832 16.9926 1.3987 17.6369C1.65774 18.3034 2.00397 18.8688 2.56743 19.432C3.13047 19.9957 3.69583 20.3427 4.36189 20.6016C5.00663 20.8522 5.74321 21.023 6.82178 21.0724C7.90268 21.1215 8.24786 21.1336 10.9997 21.1336C13.752 21.1336 14.0963 21.1215 15.1772 21.0724C16.256 21.023 16.9932 20.8522 17.638 20.6016C18.3042 20.3427 18.8688 19.9957 19.4318 19.432C19.9955 18.8688 20.3417 18.3034 20.6014 17.6371C20.8505 16.9926 21.0215 16.256 21.0721 15.1776C21.1207 14.0967 21.1334 13.7522 21.1334 11.0001C21.1334 8.24806 21.1207 7.90268 21.0721 6.82178C21.0215 5.74299 20.8505 5.00663 20.6014 4.36231C20.3417 3.69583 19.9955 3.13047 19.4318 2.56722C18.8681 2.00354 18.3044 1.65732 17.6373 1.3987C16.9913 1.14811 16.2545 0.977323 15.1757 0.927922C14.0948 0.878733 13.7507 0.866699 10.9978 0.866699H11.001ZM10.0919 2.6928C10.3617 2.69238 10.6627 2.6928 11.0009 2.6928C13.7066 2.6928 14.0272 2.70251 15.0957 2.75107C16.0837 2.79625 16.6199 2.96134 16.9771 3.10004C17.45 3.28371 17.7872 3.50326 18.1416 3.85794C18.4963 4.21261 18.7159 4.55039 18.9 5.02328C19.0387 5.38006 19.204 5.91629 19.2489 6.9043C19.2975 7.97253 19.308 8.29343 19.308 10.9978C19.308 13.7022 19.2975 14.023 19.2489 15.0913C19.2037 16.0793 19.0387 16.6155 18.9 16.9723C18.7163 17.4452 18.4963 17.7819 18.1416 18.1364C17.787 18.491 17.4502 18.7106 16.9771 18.8943C16.6204 19.0336 16.0837 19.1983 15.0957 19.2435C14.0275 19.292 13.7066 19.3026 11.0009 19.3026C8.2951 19.3026 7.97442 19.292 6.90619 19.2435C5.91818 19.1979 5.38195 19.0328 5.02453 18.8941C4.55164 18.7104 4.21386 18.4908 3.85919 18.1362C3.50452 17.7815 3.28496 17.4446 3.10087 16.9715C2.96217 16.6147 2.79686 16.0784 2.7519 15.0904C2.70334 14.0222 2.69363 13.7013 2.69363 10.9953C2.69363 8.2892 2.70334 7.97 2.7519 6.90177C2.79708 5.91376 2.96217 5.37753 3.10087 5.02033C3.28454 4.54743 3.50452 4.20965 3.85919 3.85498C4.21386 3.50031 4.55164 3.28075 5.02453 3.09666C5.38174 2.95733 5.91818 2.79266 6.90619 2.74727C7.841 2.70505 8.20326 2.69238 10.0919 2.69027V2.6928ZM16.4101 4.37538C15.7387 4.37538 15.1941 4.91942 15.1941 5.59097C15.1941 6.26231 15.7387 6.80698 16.4101 6.80698C17.0814 6.80698 17.6261 6.26231 17.6261 5.59097C17.6261 4.91963 17.0814 4.37538 16.4101 4.37538ZM11.001 5.79617C8.12711 5.79617 5.79706 8.12622 5.79706 11.0001C5.79706 13.874 8.12711 16.203 11.001 16.203C13.8749 16.203 16.2041 13.874 16.2041 11.0001C16.2041 8.12622 13.8749 5.79617 11.001 5.79617ZM11.001 7.6223C12.8664 7.6223 14.3788 9.1345 14.3788 11.0001C14.3788 12.8655 12.8664 14.3779 11.001 14.3779C9.13535 14.3779 7.62315 12.8655 7.62315 11.0001C7.62315 9.1345 9.13535 7.6223 11.001 7.6223Z" fill="white"/>
</svg>
