<svg width="33" height="33" viewBox="0 0 33 33" fill="none" xmlns="http://www.w3.org/2000/svg">
<path d="M10.7989 29.5001C9.81266 29.5005 8.836 29.3056 7.92495 28.9263C7.0139 28.5471 6.18637 27.991 5.48981 27.2901L2.44679 24.2676C1.75035 23.5689 1.19789 22.7392 0.820951 21.8261C0.444016 20.9129 0.25 19.9342 0.25 18.9457C0.25 17.9572 0.444016 16.9785 0.820951 16.0653C1.19789 15.1522 1.75035 14.3225 2.44679 13.6238L10.896 5.12507L8.9213 3.02882C8.77129 2.87698 8.65259 2.6969 8.57204 2.49891C8.49149 2.30093 8.45067 2.08893 8.4519 1.87507C8.45067 1.66121 8.49149 1.44921 8.57204 1.25123C8.65259 1.05324 8.77129 0.87316 8.9213 0.72132C9.22457 0.418662 9.63482 0.248779 10.0624 0.248779C10.4901 0.248779 10.9003 0.418662 11.2036 0.72132L25.7712 15.3463C25.9229 15.4974 26.0433 15.6771 26.1255 15.8751C26.2077 16.0731 26.25 16.2855 26.25 16.5001C26.25 16.7146 26.2077 16.927 26.1255 17.125C26.0433 17.323 25.9229 17.5028 25.7712 17.6538L16.1728 27.2901C15.4685 27.9988 14.6305 28.5594 13.7077 28.9389C12.785 29.3184 11.7961 29.5092 10.7989 29.5001ZM13.2269 7.43257L4.76143 15.9151C4.36598 16.3119 4.05229 16.7831 3.83827 17.3017C3.62425 17.8204 3.51408 18.3762 3.51408 18.9376C3.51408 19.4989 3.62425 20.0548 3.83827 20.5734C4.05229 21.092 4.36598 21.5632 4.76143 21.9601L7.78827 24.9988C8.58874 25.7966 9.67095 26.2444 10.7989 26.2444C11.9269 26.2444 13.0091 25.7966 13.8096 24.9988L22.2588 16.5001L13.2269 7.43257Z" fill="#00D1FF"/>
<path d="M27.8668 32.75C26.9319 32.7447 26.018 32.4742 25.2326 31.9704C24.4473 31.4667 23.8231 30.7505 23.4335 29.9063C23.0482 29.0571 22.9158 28.1161 23.0521 27.1945C23.1884 26.273 23.5875 25.4095 24.2024 24.7063L26.6399 21.9275C26.795 21.7521 26.9864 21.612 27.2009 21.5166C27.4154 21.4213 27.6482 21.373 27.8832 21.375C28.1155 21.3753 28.345 21.4247 28.5566 21.52C28.7681 21.6153 28.9568 21.7542 29.1101 21.9275L31.5476 24.7063C32.1625 25.4095 32.5616 26.273 32.6979 27.1945C32.8342 28.1161 32.7018 29.0571 32.3165 29.9063C31.9258 30.753 31.2991 31.4708 30.5105 31.9748C29.7219 32.4788 28.8045 32.7478 27.8668 32.75ZM27.8668 25.47L26.6563 26.8513C26.4584 27.0842 26.3305 27.3677 26.2871 27.6694C26.2437 27.9711 26.2866 28.2789 26.4109 28.5575C26.5399 28.8346 26.7449 29.07 27.0024 29.2367C27.2599 29.4034 27.5595 29.4947 27.8668 29.5C28.1769 29.4977 28.48 29.4079 28.7407 29.241C29.0013 29.0741 29.2089 28.8371 29.3391 28.5575C29.4634 28.2789 29.5063 27.9711 29.4629 27.6694C29.4195 27.3677 29.2916 27.0842 29.0938 26.8513L27.8668 25.47Z" fill="#00D1FF"/>
</svg>
